<?xml version="1.0" ?><!DOCTYPE svg  PUBLIC '-//W3C//DTD SVG 1.1//EN'  'http://www.w3.org/Graphics/SVG/1.1/DTD/svg11.dtd'><!-- Generated by graphviz version 2.44.1 (20200629.0800)
 --><!-- Pages: 1 --><svg xmlns="http://www.w3.org/2000/svg" xmlns:xlink="http://www.w3.org/1999/xlink" width="332pt" height="150pt" viewBox="0.00 0.00 332.00 150.00">
<g id="graph0" class="graph" transform="scale(1 1) rotate(0) translate(4 4)">
<polygon fill="white" stroke="transparent" points="-4,4 -4,-4 4,-4 4,4 -4,4"/>
</g>
<g id="graph1" class="graph" transform="scale(1 1) rotate(0) translate(4 146)"><g id="node1" class="node" style="opacity:0">
<title>8</title>
<ellipse fill="none" stroke="#7b7b7b" cx="18" cy="-124" rx="18" ry="18"/>
<text text-anchor="middle" x="18" y="-120.3" font-family="Times New Roman,serif" font-size="14.00">7</text>
<animate attributeName="opacity" from="0" to="1" begin="0.00s" dur="3.00s" fill="freeze"/></g><g id="node2" class="node" style="opacity:0">
<title>7</title>
<ellipse fill="none" stroke="#7b7b7b" cx="234" cy="-18" rx="18" ry="18"/>
<text text-anchor="middle" x="234" y="-14.3" font-family="Times New Roman,serif" font-size="14.00">3</text>
<animate attributeName="opacity" from="0" to="1" begin="0.00s" dur="3.00s" fill="freeze"/></g><g id="node3" class="node" style="opacity:0">
<title>6</title>
<ellipse fill="none" stroke="#7b7b7b" cx="306" cy="-64" rx="18" ry="18"/>
<text text-anchor="middle" x="306" y="-60.3" font-family="Times New Roman,serif" font-size="14.00">7</text>
<animate attributeName="opacity" from="0" to="1" begin="0.00s" dur="3.00s" fill="freeze"/></g><g id="node4" class="node" style="opacity:0">
<title>2</title>
<ellipse fill="none" stroke="#7b7b7b" cx="90" cy="-70" rx="18" ry="18"/>
<text text-anchor="middle" x="90" y="-66.3" font-family="Times New Roman,serif" font-size="14.00">4</text>
<animate attributeName="opacity" from="0" to="1" begin="0.00s" dur="3.00s" fill="freeze"/></g><g id="node5" class="node" style="opacity:0">
<title>1</title>
<ellipse fill="none" stroke="#7b7b7b" cx="18" cy="-70" rx="18" ry="18"/>
<text text-anchor="middle" x="18" y="-66.3" font-family="Times New Roman,serif" font-size="14.00">0</text>
<animate attributeName="opacity" from="0" to="1" begin="0.00s" dur="3.00s" fill="freeze"/></g><g id="node6" class="node" style="opacity:0">
<title>3</title>
<ellipse fill="none" stroke="#7b7b7b" cx="162" cy="-70" rx="18" ry="18"/>
<text text-anchor="middle" x="162" y="-66.3" font-family="Times New Roman,serif" font-size="14.00">6</text>
<animate attributeName="opacity" from="0" to="1" begin="0.00s" dur="3.00s" fill="freeze"/></g><g id="node7" class="node" style="opacity:0">
<title>5</title>
<ellipse fill="none" stroke="#7b7b7b" cx="306" cy="-118" rx="18" ry="18"/>
<text text-anchor="middle" x="306" y="-114.3" font-family="Times New Roman,serif" font-size="14.00">2</text>
<animate attributeName="opacity" from="0" to="1" begin="0.00s" dur="3.00s" fill="freeze"/></g><g id="node8" class="node" style="opacity:0">
<title>4</title>
<ellipse fill="none" stroke="#7b7b7b" cx="234" cy="-72" rx="18" ry="18"/>
<text text-anchor="middle" x="234" y="-68.3" font-family="Times New Roman,serif" font-size="14.00">5</text>
<animate attributeName="opacity" from="0" to="1" begin="0.00s" dur="3.00s" fill="freeze"/></g><g id="edge1" class="edge" style="opacity:0">
<title>1-&gt;2</title>
<path fill="none" stroke="#7b7b7b" d="M36.3,-70C44.02,-70 53.29,-70 61.89,-70"/>
<polygon fill="#7b7b7b" stroke="#7b7b7b" points="71.9,-70 61.9,-74.5 66.9,-70 61.9,-70 61.9,-70 61.9,-70 66.9,-70 61.9,-65.5 71.9,-70 71.9,-70"/>
<animate attributeName="opacity" from="0" to="1" begin="0.00s" dur="3.00s" fill="freeze"/></g><g id="edge2" class="edge" style="opacity:0">
<title>2-&gt;3</title>
<path fill="none" stroke="#7b7b7b" d="M108.3,-70C116.02,-70 125.29,-70 133.89,-70"/>
<polygon fill="#7b7b7b" stroke="#7b7b7b" points="143.9,-70 133.9,-74.5 138.9,-70 133.9,-70 133.9,-70 133.9,-70 138.9,-70 133.9,-65.5 143.9,-70 143.9,-70"/>
<animate attributeName="opacity" from="0" to="1" begin="0.00s" dur="3.00s" fill="freeze"/></g><g id="edge3" class="edge" style="opacity:0">
<title>3-&gt;4</title>
<path fill="none" stroke="#7b7b7b" d="M180.3,-70.49C188.02,-70.71 197.29,-70.98 205.89,-71.23"/>
<polygon fill="#7b7b7b" stroke="#7b7b7b" points="215.9,-71.51 205.77,-75.72 210.9,-71.37 205.9,-71.23 205.9,-71.23 205.9,-71.23 210.9,-71.37 206.03,-66.73 215.9,-71.51 215.9,-71.51"/>
<animate attributeName="opacity" from="0" to="1" begin="0.00s" dur="3.00s" fill="freeze"/></g><g id="edge4" class="edge" style="opacity:0">
<title>3-&gt;7</title>
<path fill="none" stroke="#7b7b7b" d="M176.83,-59.73C186.61,-52.46 199.92,-42.57 211.13,-34.25"/>
<polygon fill="#7b7b7b" stroke="#7b7b7b" points="219.2,-28.25 213.86,-37.83 215.19,-31.23 211.17,-34.22 211.17,-34.22 211.17,-34.22 215.19,-31.23 208.49,-30.6 219.2,-28.25 219.2,-28.25"/>
<animate attributeName="opacity" from="0" to="1" begin="0.00s" dur="3.00s" fill="freeze"/></g><g id="edge5" class="edge" style="opacity:0">
<title>4-&gt;5</title>
<path fill="none" stroke="#7b7b7b" d="M249.5,-81.53C258.89,-87.7 271.31,-95.86 282.02,-102.9"/>
<polygon fill="#7b7b7b" stroke="#7b7b7b" points="290.51,-108.48 279.69,-106.75 286.34,-105.74 282.16,-102.99 282.16,-102.99 282.16,-102.99 286.34,-105.74 284.63,-99.23 290.51,-108.48 290.51,-108.48"/>
<animate attributeName="opacity" from="0" to="1" begin="0.00s" dur="3.00s" fill="freeze"/></g><g id="edge6" class="edge" style="opacity:0">
<title>4-&gt;6</title>
<path fill="none" stroke="#7b7b7b" d="M251.95,-70.06C259.65,-69.18 268.97,-68.12 277.64,-67.13"/>
<polygon fill="#7b7b7b" stroke="#7b7b7b" points="287.72,-65.97 278.3,-71.58 282.76,-66.54 277.79,-67.11 277.79,-67.11 277.79,-67.11 282.76,-66.54 277.28,-62.64 287.72,-65.97 287.72,-65.97"/>
<animate attributeName="opacity" from="0" to="1" begin="0.00s" dur="3.00s" fill="freeze"/></g><g id="edge7" class="edge" style="opacity:0">
<title>5-&gt;1</title>
<path fill="none" stroke="#7b7b7b" d="M287.93,-118.65C248.85,-119.66 150.25,-119.55 72,-97 61.94,-94.1 51.54,-89.27 42.65,-84.48"/>
<polygon fill="#7b7b7b" stroke="#7b7b7b" points="33.67,-79.41 44.59,-80.41 38.02,-81.87 42.38,-84.33 42.38,-84.33 42.38,-84.33 38.02,-81.87 40.16,-88.25 33.67,-79.41 33.67,-79.41"/>
<animate attributeName="opacity" from="0" to="1" begin="0.00s" dur="3.00s" fill="freeze"/></g><g id="edge8" class="edge" style="opacity:0">
<title>7-&gt;1</title>
<path fill="none" stroke="#7b7b7b" d="M215.67,-18.89C185.71,-20.83 122.6,-26.65 72,-43 62.04,-46.22 51.66,-51.12 42.76,-55.87"/>
<polygon fill="#7b7b7b" stroke="#7b7b7b" points="33.76,-60.87 40.31,-52.08 38.13,-58.44 42.5,-56.01 42.5,-56.01 42.5,-56.01 38.13,-58.44 44.68,-59.94 33.76,-60.87 33.76,-60.87"/>
<animate attributeName="opacity" from="0" to="1" begin="0.00s" dur="3.00s" fill="freeze"/></g></g></svg>