<?xml version="1.0" ?><!DOCTYPE svg  PUBLIC '-//W3C//DTD SVG 1.1//EN'  'http://www.w3.org/Graphics/SVG/1.1/DTD/svg11.dtd'><!-- Generated by graphviz version 2.44.1 (20200629.0800)
 --><!-- Pages: 1 --><svg xmlns="http://www.w3.org/2000/svg" xmlns:xlink="http://www.w3.org/1999/xlink" width="152pt" height="188pt" viewBox="0.00 0.00 152.00 188.00">
<g id="graph0" class="graph" transform="scale(1 1) rotate(0) translate(4 4)">
<polygon fill="white" stroke="transparent" points="-4,4 -4,-4 4,-4 4,4 -4,4"/>
</g>
<g id="graph1" class="graph" transform="scale(1 1) rotate(0) translate(4 184)"><g id="node1" class="node" style="opacity:0">
<title>4</title>
<ellipse fill="none" stroke="#7b7b7b" cx="72" cy="-18" rx="18" ry="18"/>
<text text-anchor="middle" x="72" y="-14.3" font-family="Times New Roman,serif" font-size="14.00">5</text>
<animate attributeName="opacity" from="0" to="1" begin="0.00s" dur="2.00s" fill="freeze"/></g><g id="node2" class="node" style="opacity:0">
<title>1</title>
<ellipse fill="none" stroke="#7b7b7b" cx="99" cy="-162" rx="18" ry="18"/>
<text text-anchor="middle" x="99" y="-158.3" font-family="Times New Roman,serif" font-size="14.00">1</text>
<animate attributeName="opacity" from="0" to="1" begin="0.00s" dur="2.00s" fill="freeze"/></g><g id="node3" class="node" style="opacity:0">
<title>6</title>
<ellipse fill="none" stroke="#7b7b7b" cx="126" cy="-18" rx="18" ry="18"/>
<text text-anchor="middle" x="126" y="-14.3" font-family="Times New Roman,serif" font-size="14.00">6</text>
<animate attributeName="opacity" from="0" to="1" begin="0.00s" dur="2.00s" fill="freeze"/></g><g id="node4" class="node" style="opacity:0">
<title>2</title>
<ellipse fill="none" stroke="#7b7b7b" cx="72" cy="-90" rx="18" ry="18"/>
<text text-anchor="middle" x="72" y="-86.3" font-family="Times New Roman,serif" font-size="14.00">2</text>
<animate attributeName="opacity" from="0" to="1" begin="0.00s" dur="2.00s" fill="freeze"/></g><g id="node5" class="node" style="opacity:0">
<title>5</title>
<ellipse fill="none" stroke="#7b7b7b" cx="126" cy="-90" rx="18" ry="18"/>
<text text-anchor="middle" x="126" y="-86.3" font-family="Times New Roman,serif" font-size="14.00">3</text>
<animate attributeName="opacity" from="0" to="1" begin="0.00s" dur="2.00s" fill="freeze"/></g><g id="node6" class="node" style="opacity:0">
<title>3</title>
<ellipse fill="none" stroke="#7b7b7b" cx="18" cy="-18" rx="18" ry="18"/>
<text text-anchor="middle" x="18" y="-14.3" font-family="Times New Roman,serif" font-size="14.00">4</text>
<animate attributeName="opacity" from="0" to="1" begin="0.00s" dur="2.00s" fill="freeze"/></g><g id="edge1" class="edge" style="opacity:0">
<title>1-&gt;2</title>
<path fill="none" stroke="#7b7b7b" d="M92.74,-144.76C89.5,-136.37 85.47,-125.93 81.83,-116.5"/>
<polygon fill="#7b7b7b" stroke="#7b7b7b" points="78.23,-107.15 86.03,-114.86 80.03,-111.81 81.83,-116.48 81.83,-116.48 81.83,-116.48 80.03,-111.81 77.63,-118.1 78.23,-107.15 78.23,-107.15"/>
<animate attributeName="opacity" from="0" to="1" begin="0.00s" dur="2.00s" fill="freeze"/></g><g id="edge2" class="edge" style="opacity:0">
<title>1-&gt;5</title>
<path fill="none" stroke="#7b7b7b" d="M105.26,-144.76C108.5,-136.37 112.53,-125.93 116.17,-116.5"/>
<polygon fill="#7b7b7b" stroke="#7b7b7b" points="119.77,-107.15 120.37,-118.1 117.97,-111.81 116.17,-116.48 116.17,-116.48 116.17,-116.48 117.97,-111.81 111.97,-114.86 119.77,-107.15 119.77,-107.15"/>
<animate attributeName="opacity" from="0" to="1" begin="0.00s" dur="2.00s" fill="freeze"/></g><g id="edge3" class="edge" style="opacity:0">
<title>2-&gt;3</title>
<path fill="none" stroke="#7b7b7b" d="M61.33,-75.17C53.79,-65.39 43.52,-52.08 34.87,-40.87"/>
<polygon fill="#7b7b7b" stroke="#7b7b7b" points="28.65,-32.8 38.32,-37.97 31.7,-36.76 34.75,-40.72 34.75,-40.72 34.75,-40.72 31.7,-36.76 31.19,-43.47 28.65,-32.8 28.65,-32.8"/>
<animate attributeName="opacity" from="0" to="1" begin="0.00s" dur="2.00s" fill="freeze"/></g><g id="edge4" class="edge" style="opacity:0">
<title>2-&gt;4</title>
<path fill="none" stroke="#7b7b7b" d="M72,-71.7C72,-63.98 72,-54.71 72,-46.11"/>
<polygon fill="#7b7b7b" stroke="#7b7b7b" points="72,-36.1 76.5,-46.1 72,-41.1 72,-46.1 72,-46.1 72,-46.1 72,-41.1 67.5,-46.1 72,-36.1 72,-36.1"/>
<animate attributeName="opacity" from="0" to="1" begin="0.00s" dur="2.00s" fill="freeze"/></g><g id="edge5" class="edge" style="opacity:0">
<title>5-&gt;6</title>
<path fill="none" stroke="#7b7b7b" d="M126,-71.7C126,-63.98 126,-54.71 126,-46.11"/>
<polygon fill="#7b7b7b" stroke="#7b7b7b" points="126,-36.1 130.5,-46.1 126,-41.1 126,-46.1 126,-46.1 126,-46.1 126,-41.1 121.5,-46.1 126,-36.1 126,-36.1"/>
<animate attributeName="opacity" from="0" to="1" begin="0.00s" dur="2.00s" fill="freeze"/></g></g></svg>