<?xml version="1.0" ?><!DOCTYPE svg  PUBLIC '-//W3C//DTD SVG 1.1//EN'  'http://www.w3.org/Graphics/SVG/1.1/DTD/svg11.dtd'><!-- Generated by graphviz version 2.44.1 (20200629.0800)
 --><!-- Pages: 1 --><svg xmlns="http://www.w3.org/2000/svg" xmlns:xlink="http://www.w3.org/1999/xlink" width="476pt" height="44pt" viewBox="0.00 0.00 476.00 44.00">
<g id="graph0" class="graph" transform="scale(1 1) rotate(0) translate(4 4)">
<polygon fill="white" stroke="transparent" points="-4,4 -4,-4 4,-4 4,4 -4,4"/>
</g>
<g id="graph1" class="graph" transform="scale(1 1) rotate(0) translate(4 40)"><g id="node1" class="node" style="opacity:0">
<title>2</title>
<ellipse fill="none" stroke="#7b7b7b" cx="90" cy="-18" rx="18" ry="18"/>
<text text-anchor="middle" x="90" y="-14.3" font-family="Times New Roman,serif" font-size="14.00">2</text>
<animate attributeName="opacity" from="0" to="1" begin="0.00s" dur="3.00s" fill="freeze"/></g><g id="node2" class="node" style="opacity:0">
<title>1</title>
<ellipse fill="none" stroke="#7b7b7b" cx="18" cy="-18" rx="18" ry="18"/>
<text text-anchor="middle" x="18" y="-14.3" font-family="Times New Roman,serif" font-size="14.00">1</text>
<animate attributeName="opacity" from="0" to="1" begin="0.00s" dur="3.00s" fill="freeze"/></g><g id="node3" class="node" style="opacity:0">
<title>4</title>
<ellipse fill="none" stroke="#7b7b7b" cx="234" cy="-18" rx="18" ry="18"/>
<text text-anchor="middle" x="234" y="-14.3" font-family="Times New Roman,serif" font-size="14.00">4</text>
<animate attributeName="opacity" from="0" to="1" begin="0.00s" dur="3.00s" fill="freeze"/></g><g id="node4" class="node" style="opacity:0">
<title>3</title>
<ellipse fill="none" stroke="#7b7b7b" cx="162" cy="-18" rx="18" ry="18"/>
<text text-anchor="middle" x="162" y="-14.3" font-family="Times New Roman,serif" font-size="14.00">3</text>
<animate attributeName="opacity" from="0" to="1" begin="0.00s" dur="3.00s" fill="freeze"/></g><g id="node5" class="node" style="opacity:0">
<title>6</title>
<ellipse fill="none" stroke="#7b7b7b" cx="378" cy="-18" rx="18" ry="18"/>
<text text-anchor="middle" x="378" y="-14.3" font-family="Times New Roman,serif" font-size="14.00">6</text>
<animate attributeName="opacity" from="0" to="1" begin="0.00s" dur="3.00s" fill="freeze"/></g><g id="node6" class="node" style="opacity:0">
<title>5</title>
<ellipse fill="none" stroke="#7b7b7b" cx="306" cy="-18" rx="18" ry="18"/>
<text text-anchor="middle" x="306" y="-14.3" font-family="Times New Roman,serif" font-size="14.00">5</text>
<animate attributeName="opacity" from="0" to="1" begin="0.00s" dur="3.00s" fill="freeze"/></g><g id="node7" class="node" style="opacity:0">
<title>7</title>
<ellipse fill="none" stroke="#7b7b7b" cx="450" cy="-18" rx="18" ry="18"/>
<text text-anchor="middle" x="450" y="-14.3" font-family="Times New Roman,serif" font-size="14.00">7</text>
<animate attributeName="opacity" from="0" to="1" begin="0.00s" dur="3.00s" fill="freeze"/></g><g id="edge1" class="edge" style="opacity:0">
<title>1-&gt;2</title>
<path fill="none" stroke="#7b7b7b" d="M36.3,-18C44.02,-18 53.29,-18 61.89,-18"/>
<polygon fill="#7b7b7b" stroke="#7b7b7b" points="71.9,-18 61.9,-22.5 66.9,-18 61.9,-18 61.9,-18 61.9,-18 66.9,-18 61.9,-13.5 71.9,-18 71.9,-18"/>
<animate attributeName="opacity" from="0" to="1" begin="0.00s" dur="3.00s" fill="freeze"/></g><g id="edge2" class="edge" style="opacity:0">
<title>2-&gt;3</title>
<path fill="none" stroke="#7b7b7b" d="M108.3,-18C116.02,-18 125.29,-18 133.89,-18"/>
<polygon fill="#7b7b7b" stroke="#7b7b7b" points="143.9,-18 133.9,-22.5 138.9,-18 133.9,-18 133.9,-18 133.9,-18 138.9,-18 133.9,-13.5 143.9,-18 143.9,-18"/>
<animate attributeName="opacity" from="0" to="1" begin="0.00s" dur="3.00s" fill="freeze"/></g><g id="edge3" class="edge" style="opacity:0">
<title>3-&gt;4</title>
<path fill="none" stroke="#7b7b7b" d="M180.3,-18C188.02,-18 197.29,-18 205.89,-18"/>
<polygon fill="#7b7b7b" stroke="#7b7b7b" points="215.9,-18 205.9,-22.5 210.9,-18 205.9,-18 205.9,-18 205.9,-18 210.9,-18 205.9,-13.5 215.9,-18 215.9,-18"/>
<animate attributeName="opacity" from="0" to="1" begin="0.00s" dur="3.00s" fill="freeze"/></g><g id="edge4" class="edge" style="opacity:0">
<title>4-&gt;5</title>
<path fill="none" stroke="#7b7b7b" d="M252.3,-18C260.02,-18 269.29,-18 277.89,-18"/>
<polygon fill="#7b7b7b" stroke="#7b7b7b" points="287.9,-18 277.9,-22.5 282.9,-18 277.9,-18 277.9,-18 277.9,-18 282.9,-18 277.9,-13.5 287.9,-18 287.9,-18"/>
<animate attributeName="opacity" from="0" to="1" begin="0.00s" dur="3.00s" fill="freeze"/></g><g id="edge5" class="edge" style="opacity:0">
<title>5-&gt;6</title>
<path fill="none" stroke="#7b7b7b" d="M324.3,-18C332.02,-18 341.29,-18 349.89,-18"/>
<polygon fill="#7b7b7b" stroke="#7b7b7b" points="359.9,-18 349.9,-22.5 354.9,-18 349.9,-18 349.9,-18 349.9,-18 354.9,-18 349.9,-13.5 359.9,-18 359.9,-18"/>
<animate attributeName="opacity" from="0" to="1" begin="0.00s" dur="3.00s" fill="freeze"/></g><g id="edge6" class="edge" style="opacity:0">
<title>6-&gt;7</title>
<path fill="none" stroke="#7b7b7b" d="M396.3,-18C404.02,-18 413.29,-18 421.89,-18"/>
<polygon fill="#7b7b7b" stroke="#7b7b7b" points="431.9,-18 421.9,-22.5 426.9,-18 421.9,-18 421.9,-18 421.9,-18 426.9,-18 421.9,-13.5 431.9,-18 431.9,-18"/>
<animate attributeName="opacity" from="0" to="1" begin="0.00s" dur="3.00s" fill="freeze"/></g></g></svg>