<?xml version="1.0" ?><svg height="218pt" viewBox="0.00 0.00 218.00 218.00" width="218pt" xmlns="http://www.w3.org/2000/svg"><g id="0"><rect fill="#ffffff" height="20.00" stroke="#7b7b7b" width="20.00" x="3.00" y="3.00"/></g><g id="1"><rect fill="#ffffff" height="20.00" stroke="#7b7b7b" width="20.00" x="23.00" y="3.00"/></g><g id="2"><rect fill="#ffffff" height="20.00" stroke="#7b7b7b" width="20.00" x="43.00" y="3.00"/></g><g id="3"><rect fill="#ffffff" height="20.00" stroke="#7b7b7b" width="20.00" x="63.00" y="3.00"/></g><g id="4"><rect fill="#ffffff" height="20.00" stroke="#7b7b7b" width="20.00" x="83.00" y="3.00"/></g><g id="5"><rect fill="#ffffff" height="20.00" stroke="#7b7b7b" width="20.00" x="103.00" y="3.00"/></g><g id="6"><rect fill="#ffffff" height="20.00" stroke="#7b7b7b" width="20.00" x="123.00" y="3.00"/></g><g id="7"><rect fill="#ffffff" height="20.00" stroke="#7b7b7b" width="20.00" x="143.00" y="3.00"/></g><g id="8"><rect fill="#ffffff" height="20.00" stroke="#7b7b7b" width="20.00" x="163.00" y="3.00"/></g><g id="9"><rect fill="#ffffff" height="20.00" stroke="#7b7b7b" width="20.00" x="183.00" y="3.00"/></g><g id="10"><rect fill="#ffffff" height="20.00" stroke="#7b7b7b" width="20.00" x="3.00" y="23.00"/></g><g id="11"><rect fill="#ffffff" height="20.00" stroke="#7b7b7b" width="20.00" x="23.00" y="23.00"/><text alignment-baseline="middle" fill="#000000" font-family="Times,serif" font-size="16.00" text-anchor="middle" x="33.00" y="33.00">⬇</text></g><g id="12"><rect fill="#c0c0c0" height="20.00" stroke="#7b7b7b" width="20.00" x="43.00" y="23.00"/></g><g id="13"><rect fill="#ffffff" height="20.00" stroke="#7b7b7b" width="20.00" x="63.00" y="23.00"/></g><g id="14"><rect fill="#ffffff" height="20.00" stroke="#7b7b7b" width="20.00" x="83.00" y="23.00"/></g><g id="15"><rect fill="#ffffff" height="20.00" stroke="#7b7b7b" width="20.00" x="103.00" y="23.00"/></g><g id="16"><rect fill="#ffffff" height="20.00" stroke="#7b7b7b" width="20.00" x="123.00" y="23.00"/></g><g id="17"><rect fill="#ffffff" height="20.00" stroke="#7b7b7b" width="20.00" x="143.00" y="23.00"/></g><g id="18"><rect fill="#ffffff" height="20.00" stroke="#7b7b7b" width="20.00" x="163.00" y="23.00"/></g><g id="19"><rect fill="#ffffff" height="20.00" stroke="#7b7b7b" width="20.00" x="183.00" y="23.00"/></g><g id="20"><rect fill="#ffffff" height="20.00" stroke="#7b7b7b" width="20.00" x="3.00" y="43.00"/><text alignment-baseline="middle" fill="#000000" font-family="Times,serif" font-size="16.00" text-anchor="middle" x="13.00" y="53.00">⬇</text></g><g id="21"><rect fill="#ffffff" height="20.00" stroke="#7b7b7b" width="20.00" x="23.00" y="43.00"/><text alignment-baseline="middle" fill="#000000" font-family="Times,serif" font-size="16.00" text-anchor="middle" x="33.00" y="53.00">⬇</text></g><g id="22"><rect fill="#ffffff" height="20.00" stroke="#7b7b7b" width="20.00" x="43.00" y="43.00"/><text alignment-baseline="middle" fill="#000000" font-family="Times,serif" font-size="16.00" text-anchor="middle" x="53.00" y="53.00">⬅</text></g><g id="23"><rect fill="#c0c0c0" height="20.00" stroke="#7b7b7b" width="20.00" x="63.00" y="43.00"/></g><g id="24"><rect fill="#ffffff" height="20.00" stroke="#7b7b7b" width="20.00" x="83.00" y="43.00"/><text alignment-baseline="middle" fill="#000000" font-family="Times,serif" font-size="16.00" text-anchor="middle" x="93.00" y="53.00">⬇</text></g><g id="25"><rect fill="#ffffff" height="20.00" stroke="#7b7b7b" width="20.00" x="103.00" y="43.00"/><text alignment-baseline="middle" fill="#000000" font-family="Times,serif" font-size="16.00" text-anchor="middle" x="113.00" y="53.00">⬇</text></g><g id="26"><rect fill="#ffffff" height="20.00" stroke="#7b7b7b" width="20.00" x="123.00" y="43.00"/><text alignment-baseline="middle" fill="#000000" font-family="Times,serif" font-size="16.00" text-anchor="middle" x="133.00" y="53.00">⬇</text></g><g id="27"><rect fill="#ffffff" height="20.00" stroke="#7b7b7b" width="20.00" x="143.00" y="43.00"/><text alignment-baseline="middle" fill="#000000" font-family="Times,serif" font-size="16.00" text-anchor="middle" x="153.00" y="53.00">⬇</text></g><g id="28"><rect fill="#ffffff" height="20.00" stroke="#7b7b7b" width="20.00" x="163.00" y="43.00"/><text alignment-baseline="middle" fill="#000000" font-family="Times,serif" font-size="16.00" text-anchor="middle" x="173.00" y="53.00">⬇</text></g><g id="29"><rect fill="#ffffff" height="20.00" stroke="#7b7b7b" width="20.00" x="183.00" y="43.00"/></g><g id="30"><rect fill="#ffffff" height="20.00" stroke="#7b7b7b" width="20.00" x="3.00" y="63.00"/><text alignment-baseline="middle" fill="#000000" font-family="Times,serif" font-size="16.00" text-anchor="middle" x="13.00" y="73.00">➡</text></g><g id="31"><rect fill="#008000" height="20.00" stroke="#7b7b7b" width="20.00" x="23.00" y="63.00"/></g><g id="32"><rect fill="#dda0dd" height="20.00" stroke="#7b7b7b" width="20.00" x="43.00" y="63.00"/><text alignment-baseline="middle" fill="#000000" font-family="Times,serif" font-size="16.00" text-anchor="middle" x="53.00" y="73.00">⬅</text></g><g id="33"><rect fill="#c0c0c0" height="20.00" stroke="#7b7b7b" width="20.00" x="63.00" y="63.00"/></g><g id="34"><rect fill="#dda0dd" height="20.00" stroke="#7b7b7b" width="20.00" x="83.00" y="63.00"/><text alignment-baseline="middle" fill="#000000" font-family="Times,serif" font-size="16.00" text-anchor="middle" x="93.00" y="73.00">⬇</text></g><g id="35"><rect fill="#dda0dd" height="20.00" stroke="#7b7b7b" width="20.00" x="103.00" y="63.00"/><text alignment-baseline="middle" fill="#000000" font-family="Times,serif" font-size="16.00" text-anchor="middle" x="113.00" y="73.00">⬅</text></g><g id="36"><rect fill="#dda0dd" height="20.00" stroke="#7b7b7b" width="20.00" x="123.00" y="63.00"/><text alignment-baseline="middle" fill="#000000" font-family="Times,serif" font-size="16.00" text-anchor="middle" x="133.00" y="73.00">⬅</text></g><g id="37"><rect fill="#dda0dd" height="20.00" stroke="#7b7b7b" width="20.00" x="143.00" y="63.00"/><text alignment-baseline="middle" fill="#000000" font-family="Times,serif" font-size="16.00" text-anchor="middle" x="153.00" y="73.00">⬅</text></g><g id="38"><rect fill="#dda0dd" height="20.00" stroke="#7b7b7b" width="20.00" x="163.00" y="63.00"/><text alignment-baseline="middle" fill="#000000" font-family="Times,serif" font-size="16.00" text-anchor="middle" x="173.00" y="73.00">⬅</text></g><g id="39"><rect fill="#ffffff" height="20.00" stroke="#7b7b7b" width="20.00" x="183.00" y="63.00"/><text alignment-baseline="middle" fill="#000000" font-family="Times,serif" font-size="16.00" text-anchor="middle" x="193.00" y="73.00">⬅</text></g><g id="40"><rect fill="#ffffff" height="20.00" stroke="#7b7b7b" width="20.00" x="3.00" y="83.00"/><text alignment-baseline="middle" fill="#000000" font-family="Times,serif" font-size="16.00" text-anchor="middle" x="13.00" y="93.00">⬆</text></g><g id="41"><rect fill="#ffffff" height="20.00" stroke="#7b7b7b" width="20.00" x="23.00" y="83.00"/><text alignment-baseline="middle" fill="#000000" font-family="Times,serif" font-size="16.00" text-anchor="middle" x="33.00" y="93.00">⬆</text></g><g id="42"><rect fill="#dda0dd" height="20.00" stroke="#7b7b7b" width="20.00" x="43.00" y="83.00"/><text alignment-baseline="middle" fill="#000000" font-family="Times,serif" font-size="16.00" text-anchor="middle" x="53.00" y="93.00">⬆</text></g><g id="43"><rect fill="#dda0dd" height="20.00" stroke="#7b7b7b" width="20.00" x="63.00" y="83.00"/><text alignment-baseline="middle" fill="#000000" font-family="Times,serif" font-size="16.00" text-anchor="middle" x="73.00" y="93.00">⬅</text></g><g id="44"><rect fill="#dda0dd" height="20.00" stroke="#7b7b7b" width="20.00" x="83.00" y="83.00"/><text alignment-baseline="middle" fill="#000000" font-family="Times,serif" font-size="16.00" text-anchor="middle" x="93.00" y="93.00">⬅</text></g><g id="45"><rect fill="#c0c0c0" height="20.00" stroke="#7b7b7b" width="20.00" x="103.00" y="83.00"/></g><g id="46"><rect fill="#ffffff" height="20.00" stroke="#7b7b7b" width="20.00" x="123.00" y="83.00"/><text alignment-baseline="middle" fill="#000000" font-family="Times,serif" font-size="16.00" text-anchor="middle" x="133.00" y="93.00">⬆</text></g><g id="47"><rect fill="#ffffff" height="20.00" stroke="#7b7b7b" width="20.00" x="143.00" y="83.00"/><text alignment-baseline="middle" fill="#000000" font-family="Times,serif" font-size="16.00" text-anchor="middle" x="153.00" y="93.00">⬆</text></g><g id="48"><rect fill="#dda0dd" height="20.00" stroke="#7b7b7b" width="20.00" x="163.00" y="83.00"/><text alignment-baseline="middle" fill="#000000" font-family="Times,serif" font-size="16.00" text-anchor="middle" x="173.00" y="93.00">⬆</text></g><g id="49"><rect fill="#ffffff" height="20.00" stroke="#7b7b7b" width="20.00" x="183.00" y="83.00"/><text alignment-baseline="middle" fill="#000000" font-family="Times,serif" font-size="16.00" text-anchor="middle" x="193.00" y="93.00">⬅</text></g><g id="50"><rect fill="#ffffff" height="20.00" stroke="#7b7b7b" width="20.00" x="3.00" y="103.00"/><text alignment-baseline="middle" fill="#000000" font-family="Times,serif" font-size="16.00" text-anchor="middle" x="13.00" y="113.00">⬆</text></g><g id="51"><rect fill="#ffffff" height="20.00" stroke="#7b7b7b" width="20.00" x="23.00" y="103.00"/><text alignment-baseline="middle" fill="#000000" font-family="Times,serif" font-size="16.00" text-anchor="middle" x="33.00" y="113.00">⬆</text></g><g id="52"><rect fill="#ffffff" height="20.00" stroke="#7b7b7b" width="20.00" x="43.00" y="103.00"/><text alignment-baseline="middle" fill="#000000" font-family="Times,serif" font-size="16.00" text-anchor="middle" x="53.00" y="113.00">⬆</text></g><g id="53"><rect fill="#ffffff" height="20.00" stroke="#7b7b7b" width="20.00" x="63.00" y="103.00"/><text alignment-baseline="middle" fill="#000000" font-family="Times,serif" font-size="16.00" text-anchor="middle" x="73.00" y="113.00">⬆</text></g><g id="54"><rect fill="#c0c0c0" height="20.00" stroke="#7b7b7b" width="20.00" x="83.00" y="103.00"/></g><g id="55"><rect fill="#c0c0c0" height="20.00" stroke="#7b7b7b" width="20.00" x="103.00" y="103.00"/></g><g id="56"><rect fill="#ffffff" height="20.00" stroke="#7b7b7b" width="20.00" x="123.00" y="103.00"/><text alignment-baseline="middle" fill="#000000" font-family="Times,serif" font-size="16.00" text-anchor="middle" x="133.00" y="113.00">⬆</text></g><g id="57"><rect fill="#ffffff" height="20.00" stroke="#7b7b7b" width="20.00" x="143.00" y="103.00"/><text alignment-baseline="middle" fill="#000000" font-family="Times,serif" font-size="16.00" text-anchor="middle" x="153.00" y="113.00">⬆</text></g><g id="58"><rect fill="#dda0dd" height="20.00" stroke="#7b7b7b" width="20.00" x="163.00" y="103.00"/><text alignment-baseline="middle" fill="#000000" font-family="Times,serif" font-size="16.00" text-anchor="middle" x="173.00" y="113.00">⬆</text></g><g id="59"><rect fill="#ffffff" height="20.00" stroke="#7b7b7b" width="20.00" x="183.00" y="103.00"/><text alignment-baseline="middle" fill="#000000" font-family="Times,serif" font-size="16.00" text-anchor="middle" x="193.00" y="113.00">⬅</text></g><g id="60"><rect fill="#ffffff" height="20.00" stroke="#7b7b7b" width="20.00" x="3.00" y="123.00"/><text alignment-baseline="middle" fill="#000000" font-family="Times,serif" font-size="16.00" text-anchor="middle" x="13.00" y="133.00">⬆</text></g><g id="61"><rect fill="#ffffff" height="20.00" stroke="#7b7b7b" width="20.00" x="23.00" y="123.00"/><text alignment-baseline="middle" fill="#000000" font-family="Times,serif" font-size="16.00" text-anchor="middle" x="33.00" y="133.00">⬆</text></g><g id="62"><rect fill="#ffffff" height="20.00" stroke="#7b7b7b" width="20.00" x="43.00" y="123.00"/><text alignment-baseline="middle" fill="#000000" font-family="Times,serif" font-size="16.00" text-anchor="middle" x="53.00" y="133.00">⬆</text></g><g id="63"><rect fill="#ffffff" height="20.00" stroke="#7b7b7b" width="20.00" x="63.00" y="123.00"/><text alignment-baseline="middle" fill="#000000" font-family="Times,serif" font-size="16.00" text-anchor="middle" x="73.00" y="133.00">⬆</text></g><g id="64"><rect fill="#ffffff" height="20.00" stroke="#7b7b7b" width="20.00" x="83.00" y="123.00"/><text alignment-baseline="middle" fill="#000000" font-family="Times,serif" font-size="16.00" text-anchor="middle" x="93.00" y="133.00">⬅</text></g><g id="65"><rect fill="#c0c0c0" height="20.00" stroke="#7b7b7b" width="20.00" x="103.00" y="123.00"/></g><g id="66"><rect fill="#ffffff" height="20.00" stroke="#7b7b7b" width="20.00" x="123.00" y="123.00"/><text alignment-baseline="middle" fill="#000000" font-family="Times,serif" font-size="16.00" text-anchor="middle" x="133.00" y="133.00">⬆</text></g><g id="67"><rect fill="#ffffff" height="20.00" stroke="#7b7b7b" width="20.00" x="143.00" y="123.00"/><text alignment-baseline="middle" fill="#000000" font-family="Times,serif" font-size="16.00" text-anchor="middle" x="153.00" y="133.00">⬆</text></g><g id="68"><rect fill="#dda0dd" height="20.00" stroke="#7b7b7b" width="20.00" x="163.00" y="123.00"/><text alignment-baseline="middle" fill="#000000" font-family="Times,serif" font-size="16.00" text-anchor="middle" x="173.00" y="133.00">⬆</text></g><g id="69"><rect fill="#ffffff" height="20.00" stroke="#7b7b7b" width="20.00" x="183.00" y="123.00"/><text alignment-baseline="middle" fill="#000000" font-family="Times,serif" font-size="16.00" text-anchor="middle" x="193.00" y="133.00">⬅</text></g><g id="70"><rect fill="#ffffff" height="20.00" stroke="#7b7b7b" width="20.00" x="3.00" y="143.00"/><text alignment-baseline="middle" fill="#000000" font-family="Times,serif" font-size="16.00" text-anchor="middle" x="13.00" y="153.00">⬆</text></g><g id="71"><rect fill="#ffffff" height="20.00" stroke="#7b7b7b" width="20.00" x="23.00" y="143.00"/><text alignment-baseline="middle" fill="#000000" font-family="Times,serif" font-size="16.00" text-anchor="middle" x="33.00" y="153.00">⬆</text></g><g id="72"><rect fill="#ffffff" height="20.00" stroke="#7b7b7b" width="20.00" x="43.00" y="143.00"/><text alignment-baseline="middle" fill="#000000" font-family="Times,serif" font-size="16.00" text-anchor="middle" x="53.00" y="153.00">⬆</text></g><g id="73"><rect fill="#ffffff" height="20.00" stroke="#7b7b7b" width="20.00" x="63.00" y="143.00"/><text alignment-baseline="middle" fill="#000000" font-family="Times,serif" font-size="16.00" text-anchor="middle" x="73.00" y="153.00">⬆</text></g><g id="74"><rect fill="#ffffff" height="20.00" stroke="#7b7b7b" width="20.00" x="83.00" y="143.00"/><text alignment-baseline="middle" fill="#000000" font-family="Times,serif" font-size="16.00" text-anchor="middle" x="93.00" y="153.00">⬆</text></g><g id="75"><rect fill="#ffffff" height="20.00" stroke="#7b7b7b" width="20.00" x="103.00" y="143.00"/><text alignment-baseline="middle" fill="#000000" font-family="Times,serif" font-size="16.00" text-anchor="middle" x="113.00" y="153.00">⬅</text></g><g id="76"><rect fill="#c0c0c0" height="20.00" stroke="#7b7b7b" width="20.00" x="123.00" y="143.00"/></g><g id="77"><rect fill="#ffffff" height="20.00" stroke="#7b7b7b" width="20.00" x="143.00" y="143.00"/><text alignment-baseline="middle" fill="#000000" font-family="Times,serif" font-size="16.00" text-anchor="middle" x="153.00" y="153.00">⬆</text></g><g id="78"><rect fill="#ff0000" height="20.00" stroke="#7b7b7b" width="20.00" x="163.00" y="143.00"/><text alignment-baseline="middle" fill="#000000" font-family="Times,serif" font-size="16.00" text-anchor="middle" x="173.00" y="153.00">⬆</text></g><g id="79"><rect fill="#ffffff" height="20.00" stroke="#7b7b7b" width="20.00" x="183.00" y="143.00"/></g><g id="80"><rect fill="#ffffff" height="20.00" stroke="#7b7b7b" width="20.00" x="3.00" y="163.00"/><text alignment-baseline="middle" fill="#000000" font-family="Times,serif" font-size="16.00" text-anchor="middle" x="13.00" y="173.00">⬆</text></g><g id="81"><rect fill="#ffffff" height="20.00" stroke="#7b7b7b" width="20.00" x="23.00" y="163.00"/><text alignment-baseline="middle" fill="#000000" font-family="Times,serif" font-size="16.00" text-anchor="middle" x="33.00" y="173.00">⬆</text></g><g id="82"><rect fill="#ffffff" height="20.00" stroke="#7b7b7b" width="20.00" x="43.00" y="163.00"/><text alignment-baseline="middle" fill="#000000" font-family="Times,serif" font-size="16.00" text-anchor="middle" x="53.00" y="173.00">⬅</text></g><g id="83"><rect fill="#ffffff" height="20.00" stroke="#7b7b7b" width="20.00" x="63.00" y="163.00"/><text alignment-baseline="middle" fill="#000000" font-family="Times,serif" font-size="16.00" text-anchor="middle" x="73.00" y="173.00">⬆</text></g><g id="84"><rect fill="#ffffff" height="20.00" stroke="#7b7b7b" width="20.00" x="83.00" y="163.00"/><text alignment-baseline="middle" fill="#000000" font-family="Times,serif" font-size="16.00" text-anchor="middle" x="93.00" y="173.00">⬆</text></g><g id="85"><rect fill="#ffffff" height="20.00" stroke="#7b7b7b" width="20.00" x="103.00" y="163.00"/><text alignment-baseline="middle" fill="#000000" font-family="Times,serif" font-size="16.00" text-anchor="middle" x="113.00" y="173.00">⬆</text></g><g id="86"><rect fill="#c0c0c0" height="20.00" stroke="#7b7b7b" width="20.00" x="123.00" y="163.00"/></g><g id="87"><rect fill="#ffffff" height="20.00" stroke="#7b7b7b" width="20.00" x="143.00" y="163.00"/><text alignment-baseline="middle" fill="#000000" font-family="Times,serif" font-size="16.00" text-anchor="middle" x="153.00" y="173.00">⬆</text></g><g id="88"><rect fill="#ffffff" height="20.00" stroke="#7b7b7b" width="20.00" x="163.00" y="163.00"/></g><g id="89"><rect fill="#ffffff" height="20.00" stroke="#7b7b7b" width="20.00" x="183.00" y="163.00"/></g><g id="90"><rect fill="#ffffff" height="20.00" stroke="#7b7b7b" width="20.00" x="3.00" y="183.00"/></g><g id="91"><rect fill="#ffffff" height="20.00" stroke="#7b7b7b" width="20.00" x="23.00" y="183.00"/><text alignment-baseline="middle" fill="#000000" font-family="Times,serif" font-size="16.00" text-anchor="middle" x="33.00" y="193.00">⬆</text></g><g id="92"><rect fill="#ffffff" height="20.00" stroke="#7b7b7b" width="20.00" x="43.00" y="183.00"/></g><g id="93"><rect fill="#ffffff" height="20.00" stroke="#7b7b7b" width="20.00" x="63.00" y="183.00"/></g><g id="94"><rect fill="#ffffff" height="20.00" stroke="#7b7b7b" width="20.00" x="83.00" y="183.00"/></g><g id="95"><rect fill="#ffffff" height="20.00" stroke="#7b7b7b" width="20.00" x="103.00" y="183.00"/></g><g id="96"><rect fill="#ffffff" height="20.00" stroke="#7b7b7b" width="20.00" x="123.00" y="183.00"/></g><g id="97"><rect fill="#ffffff" height="20.00" stroke="#7b7b7b" width="20.00" x="143.00" y="183.00"/></g><g id="98"><rect fill="#ffffff" height="20.00" stroke="#7b7b7b" width="20.00" x="163.00" y="183.00"/></g><g id="99"><rect fill="#ffffff" height="20.00" stroke="#7b7b7b" width="20.00" x="183.00" y="183.00"/></g><g id="100"><text fill="#7b7b7b" font-family="Times,serif" font-size="12.00" x="206.00" y="19.00">0</text></g><g id="101"><text fill="#7b7b7b" font-family="Times,serif" font-size="12.00" x="206.00" y="39.00">1</text></g><g id="102"><text fill="#7b7b7b" font-family="Times,serif" font-size="12.00" x="206.00" y="59.00">2</text></g><g id="103"><text fill="#7b7b7b" font-family="Times,serif" font-size="12.00" x="206.00" y="79.00">3</text></g><g id="104"><text fill="#7b7b7b" font-family="Times,serif" font-size="12.00" x="206.00" y="99.00">4</text></g><g id="105"><text fill="#7b7b7b" font-family="Times,serif" font-size="12.00" x="206.00" y="119.00">5</text></g><g id="106"><text fill="#7b7b7b" font-family="Times,serif" font-size="12.00" x="206.00" y="139.00">6</text></g><g id="107"><text fill="#7b7b7b" font-family="Times,serif" font-size="12.00" x="206.00" y="159.00">7</text></g><g id="108"><text fill="#7b7b7b" font-family="Times,serif" font-size="12.00" x="206.00" y="179.00">8</text></g><g id="109"><text fill="#7b7b7b" font-family="Times,serif" font-size="12.00" x="206.00" y="199.00">9</text></g><g id="110"><text fill="#7b7b7b" font-family="Times,serif" font-size="12.00" x="10.00" y="216.00">0</text></g><g id="111"><text fill="#7b7b7b" font-family="Times,serif" font-size="12.00" x="30.00" y="216.00">1</text></g><g id="112"><text fill="#7b7b7b" font-family="Times,serif" font-size="12.00" x="50.00" y="216.00">2</text></g><g id="113"><text fill="#7b7b7b" font-family="Times,serif" font-size="12.00" x="70.00" y="216.00">3</text></g><g id="114"><text fill="#7b7b7b" font-family="Times,serif" font-size="12.00" x="90.00" y="216.00">4</text></g><g id="115"><text fill="#7b7b7b" font-family="Times,serif" font-size="12.00" x="110.00" y="216.00">5</text></g><g id="116"><text fill="#7b7b7b" font-family="Times,serif" font-size="12.00" x="130.00" y="216.00">6</text></g><g id="117"><text fill="#7b7b7b" font-family="Times,serif" font-size="12.00" x="150.00" y="216.00">7</text></g><g id="118"><text fill="#7b7b7b" font-family="Times,serif" font-size="12.00" x="170.00" y="216.00">8</text></g><g id="119"><text fill="#7b7b7b" font-family="Times,serif" font-size="12.00" x="190.00" y="216.00">9</text></g></svg>