<?xml version="1.0" ?><!DOCTYPE svg  PUBLIC '-//W3C//DTD SVG 1.1//EN'  'http://www.w3.org/Graphics/SVG/1.1/DTD/svg11.dtd'><!-- Generated by graphviz version 2.44.1 (20200629.0800)
 --><!-- Pages: 1 --><svg height="44pt" viewBox="0.00 0.00 476.00 44.00" width="476pt" xmlns="http://www.w3.org/2000/svg" xmlns:xlink="http://www.w3.org/1999/xlink">
<g class="graph" id="graph0" transform="scale(1 1) rotate(0) translate(4 40)">
<polygon fill="white" points="-4,4 -4,-40 472,-40 472,4 -4,4" stroke="transparent"/>
<!-- 1 -->
<g class="node" id="node1">
<title>1</title>
<ellipse cx="18" cy="-18" fill="#ffffff" rx="18" ry="18" stroke="#7b7b7b"/>
<text fill="#000000" font-family="Times New Roman,serif" font-size="14.00" text-anchor="middle" x="18" y="-14.3">1</text>
</g>
<!-- 2 -->
<g class="node" id="node2">
<title>2</title>
<ellipse cx="90" cy="-18" fill="#ffffff" rx="18" ry="18" stroke="#7b7b7b"/>
<text fill="#000000" font-family="Times New Roman,serif" font-size="14.00" text-anchor="middle" x="90" y="-14.3">2</text>
</g>
<!-- 1&#45;&gt;2 -->
<g class="edge" id="edge1">
<title>1-&gt;2</title>
<path d="M35.24,-12.2C43.36,-11.29 53.41,-11.03 62.61,-11.43" fill="none" stroke="#7b7b7b"/>
<polygon fill="#7b7b7b" points="72.85,-12.21 62.54,-15.94 67.87,-11.83 62.88,-11.46 62.88,-11.46 62.88,-11.46 67.87,-11.83 63.22,-6.97 72.85,-12.21 72.85,-12.21" stroke="#7b7b7b"/>
</g>
<!-- 2&#45;&gt;1 -->
<g class="edge" id="edge2">
<title>2-&gt;1</title>
<path d="M72.85,-23.79C64.74,-24.71 54.7,-24.97 45.49,-24.57" fill="none" stroke="#7b7b7b"/>
<polygon fill="#7b7b7b" points="35.24,-23.8 45.54,-20.06 40.22,-24.17 45.21,-24.55 45.21,-24.55 45.21,-24.55 40.22,-24.17 44.87,-29.04 35.24,-23.8 35.24,-23.8" stroke="#7b7b7b"/>
</g>
<!-- 3 -->
<g class="node" id="node3">
<title>3</title>
<ellipse cx="162" cy="-18" fill="#ffffff" rx="18" ry="18" stroke="#7b7b7b"/>
<text fill="#000000" font-family="Times New Roman,serif" font-size="14.00" text-anchor="middle" x="162" y="-14.3">3</text>
</g>
<!-- 2&#45;&gt;3 -->
<g class="edge" id="edge3">
<title>2-&gt;3</title>
<path d="M107.24,-12.2C115.36,-11.29 125.41,-11.03 134.61,-11.43" fill="none" stroke="#7b7b7b"/>
<polygon fill="#7b7b7b" points="144.85,-12.21 134.54,-15.94 139.87,-11.83 134.88,-11.46 134.88,-11.46 134.88,-11.46 139.87,-11.83 135.22,-6.97 144.85,-12.21 144.85,-12.21" stroke="#7b7b7b"/>
</g>
<!-- 3&#45;&gt;2 -->
<g class="edge" id="edge4">
<title>3-&gt;2</title>
<path d="M144.85,-23.79C136.74,-24.71 126.7,-24.97 117.49,-24.57" fill="none" stroke="#7b7b7b"/>
<polygon fill="#7b7b7b" points="107.24,-23.8 117.54,-20.06 112.22,-24.17 117.21,-24.55 117.21,-24.55 117.21,-24.55 112.22,-24.17 116.87,-29.04 107.24,-23.8 107.24,-23.8" stroke="#7b7b7b"/>
</g>
<!-- 4 -->
<g class="node" id="node4">
<title>4</title>
<ellipse cx="234" cy="-18" fill="#f0f8ff" rx="18" ry="18" stroke="#7b7b7b"/>
<text fill="#000000" font-family="Times New Roman,serif" font-size="14.00" text-anchor="middle" x="234" y="-14.3">4</text>
</g>
<!-- 3&#45;&gt;4 -->
<g class="edge" id="edge5">
<title>3-&gt;4</title>
<path d="M179.24,-12.2C187.36,-11.29 197.41,-11.03 206.61,-11.43" fill="none" stroke="#00ff7f"/>
<polygon fill="#00ff7f" points="216.85,-12.21 206.54,-15.94 211.87,-11.83 206.88,-11.46 206.88,-11.46 206.88,-11.46 211.87,-11.83 207.22,-6.97 216.85,-12.21 216.85,-12.21" stroke="#00ff7f"/>
</g>
<!-- 4&#45;&gt;3 -->
<g class="edge" id="edge6">
<title>4-&gt;3</title>
<path d="M216.85,-23.79C208.74,-24.71 198.7,-24.97 189.49,-24.57" fill="none" stroke="#7b7b7b"/>
<polygon fill="#7b7b7b" points="179.24,-23.8 189.54,-20.06 184.22,-24.17 189.21,-24.55 189.21,-24.55 189.21,-24.55 184.22,-24.17 188.87,-29.04 179.24,-23.8 179.24,-23.8" stroke="#7b7b7b"/>
</g>
<!-- 5 -->
<g class="node" id="node5">
<title>5</title>
<ellipse cx="306" cy="-18" fill="#ffffff" rx="18" ry="18" stroke="#7b7b7b"/>
<text fill="#000000" font-family="Times New Roman,serif" font-size="14.00" text-anchor="middle" x="306" y="-14.3">5</text>
</g>
<!-- 4&#45;&gt;5 -->
<g class="edge" id="edge7">
<title>4-&gt;5</title>
<path d="M251.24,-12.2C259.36,-11.29 269.41,-11.03 278.61,-11.43" fill="none" stroke="#7b7b7b"/>
<polygon fill="#7b7b7b" points="288.85,-12.21 278.54,-15.94 283.87,-11.83 278.88,-11.46 278.88,-11.46 278.88,-11.46 283.87,-11.83 279.22,-6.97 288.85,-12.21 288.85,-12.21" stroke="#7b7b7b"/>
</g>
<!-- 5&#45;&gt;4 -->
<g class="edge" id="edge8">
<title>5-&gt;4</title>
<path d="M288.85,-23.79C280.74,-24.71 270.7,-24.97 261.49,-24.57" fill="none" stroke="#7b7b7b"/>
<polygon fill="#7b7b7b" points="251.24,-23.8 261.54,-20.06 256.22,-24.17 261.21,-24.55 261.21,-24.55 261.21,-24.55 256.22,-24.17 260.87,-29.04 251.24,-23.8 251.24,-23.8" stroke="#7b7b7b"/>
</g>
<!-- 6 -->
<g class="node" id="node6">
<title>6</title>
<ellipse cx="378" cy="-18" fill="#ffffff" rx="18" ry="18" stroke="#7b7b7b"/>
<text fill="#000000" font-family="Times New Roman,serif" font-size="14.00" text-anchor="middle" x="378" y="-14.3">6</text>
</g>
<!-- 5&#45;&gt;6 -->
<g class="edge" id="edge9">
<title>5-&gt;6</title>
<path d="M323.24,-12.2C331.36,-11.29 341.41,-11.03 350.61,-11.43" fill="none" stroke="#00ff7f"/>
<polygon fill="#00ff7f" points="360.85,-12.21 350.54,-15.94 355.87,-11.83 350.88,-11.46 350.88,-11.46 350.88,-11.46 355.87,-11.83 351.22,-6.97 360.85,-12.21 360.85,-12.21" stroke="#00ff7f"/>
</g>
<!-- 6&#45;&gt;5 -->
<g class="edge" id="edge10">
<title>6-&gt;5</title>
<path d="M360.85,-23.79C352.74,-24.71 342.7,-24.97 333.49,-24.57" fill="none" stroke="#7b7b7b"/>
<polygon fill="#7b7b7b" points="323.24,-23.8 333.54,-20.06 328.22,-24.17 333.21,-24.55 333.21,-24.55 333.21,-24.55 328.22,-24.17 332.87,-29.04 323.24,-23.8 323.24,-23.8" stroke="#7b7b7b"/>
</g>
<!-- 7 -->
<g class="node" id="node7">
<title>7</title>
<ellipse cx="450" cy="-18" fill="#f5deb3" rx="18" ry="18" stroke="#7b7b7b"/>
<text fill="#000000" font-family="Times New Roman,serif" font-size="14.00" text-anchor="middle" x="450" y="-14.3">7</text>
</g>
<!-- 6&#45;&gt;7 -->
<g class="edge" id="edge11">
<title>6-&gt;7</title>
<path d="M395.24,-12.2C403.36,-11.29 413.41,-11.03 422.61,-11.43" fill="none" stroke="#00ff7f"/>
<polygon fill="#00ff7f" points="432.85,-12.21 422.54,-15.94 427.87,-11.83 422.88,-11.46 422.88,-11.46 422.88,-11.46 427.87,-11.83 423.22,-6.97 432.85,-12.21 432.85,-12.21" stroke="#00ff7f"/>
</g>
<!-- 7&#45;&gt;6 -->
<g class="edge" id="edge12">
<title>7-&gt;6</title>
<path d="M432.85,-23.79C424.74,-24.71 414.7,-24.97 405.49,-24.57" fill="none" stroke="#7b7b7b"/>
<polygon fill="#7b7b7b" points="395.24,-23.8 405.54,-20.06 400.22,-24.17 405.21,-24.55 405.21,-24.55 405.21,-24.55 400.22,-24.17 404.87,-29.04 395.24,-23.8 395.24,-23.8" stroke="#7b7b7b"/>
</g>
</g>
<g class="graph" id="graph1" transform="scale(1 1) rotate(0) translate(4 40)"/></svg>