<?xml version="1.0" ?><!DOCTYPE svg  PUBLIC '-//W3C//DTD SVG 1.1//EN'  'http://www.w3.org/Graphics/SVG/1.1/DTD/svg11.dtd'><!-- Generated by graphviz version 2.44.1 (20200629.0800)
 --><!-- Pages: 1 --><svg height="198pt" viewBox="0.00 0.00 332.00 198.00" width="332pt" xmlns="http://www.w3.org/2000/svg" xmlns:xlink="http://www.w3.org/1999/xlink">
<g class="graph" id="graph0" transform="scale(1 1) rotate(0) translate(4 121)">
<polygon fill="white" points="-4,4 -4,-121 328,-121 328,4 -4,4" stroke="transparent"/>
<!-- 1 -->
<g class="node" id="node1">
<title>1</title>
<ellipse cx="18" cy="-41" fill="#ffffff" rx="18" ry="18" stroke="#7b7b7b"/>
<text fill="#000000" font-family="Times New Roman,serif" font-size="14.00" text-anchor="middle" x="18" y="-37.3">0</text>
<animateMotion begin="0.00s" dur="5.00s" repeatCount="indefinite" path="m0,0 l0.00,73.00"/></g>
<!-- 2 -->
<g class="node" id="node2">
<title>2</title>
<ellipse cx="90" cy="-64" fill="#ffffff" rx="18" ry="18" stroke="#7b7b7b"/>
<text fill="#000000" font-family="Times New Roman,serif" font-size="14.00" text-anchor="middle" x="90" y="-60.3">3</text>
<animateMotion begin="0.00s" dur="5.00s" repeatCount="indefinite" path="m0,0 l0.00,73.00"/></g>
<!-- 1&#45;&gt;2 -->
<g class="edge" id="edge1" style="opacity:1">
<title>1-&gt;2</title>
<path d="M35.24,-46.33C43.42,-49.02 53.55,-52.35 62.8,-55.39" fill="none" stroke="#7b7b7b"/>
<polygon fill="#7b7b7b" points="72.37,-58.53 61.46,-59.69 67.62,-56.97 62.87,-55.41 62.87,-55.41 62.87,-55.41 67.62,-56.97 64.27,-51.14 72.37,-58.53 72.37,-58.53" stroke="#7b7b7b"/>
<animate attributeName="opacity" begin="0.00s" dur="5.00s" repeatCount="indefinite" from="1" to="0"/></g>
<!-- 3 -->
<g class="node" id="node3">
<title>3</title>
<ellipse cx="162" cy="-64" fill="#ffffff" rx="18" ry="18" stroke="#7b7b7b"/>
<text fill="#000000" font-family="Times New Roman,serif" font-size="14.00" text-anchor="middle" x="162" y="-60.3">5</text>
<animateMotion begin="0.00s" dur="5.00s" repeatCount="indefinite" path="m0,0 l0.00,73.00"/></g>
<!-- 2&#45;&gt;3 -->
<g class="edge" id="edge2" style="opacity:1">
<title>2-&gt;3</title>
<path d="M108.3,-64C116.02,-64 125.29,-64 133.89,-64" fill="none" stroke="#7b7b7b"/>
<polygon fill="#7b7b7b" points="143.9,-64 133.9,-68.5 138.9,-64 133.9,-64 133.9,-64 133.9,-64 138.9,-64 133.9,-59.5 143.9,-64 143.9,-64" stroke="#7b7b7b"/>
<animate attributeName="opacity" begin="0.00s" dur="5.00s" repeatCount="indefinite" from="1" to="0"/></g>
<!-- 4 -->
<g class="node" id="node4">
<title>4</title>
<ellipse cx="234" cy="-72" fill="#ffffff" rx="18" ry="18" stroke="#7b7b7b"/>
<text fill="#000000" font-family="Times New Roman,serif" font-size="14.00" text-anchor="middle" x="234" y="-68.3">4</text>
<animateMotion begin="0.00s" dur="5.00s" repeatCount="indefinite" path="m0,0 l-216.00,0.00"/></g>
<!-- 3&#45;&gt;4 -->
<g class="edge" id="edge4" style="opacity:1">
<title>3-&gt;4</title>
<path d="M179.95,-65.94C187.65,-66.82 196.97,-67.88 205.64,-68.87" fill="none" stroke="#ffa500"/>
<polygon fill="#ffa500" points="215.72,-70.03 205.28,-73.36 210.76,-69.46 205.79,-68.89 205.79,-68.89 205.79,-68.89 210.76,-69.46 206.3,-64.42 215.72,-70.03 215.72,-70.03" stroke="#ffa500"/>
<animate attributeName="opacity" begin="0.00s" dur="5.00s" repeatCount="indefinite" from="1" to="0"/></g>
<!-- 7 -->
<g class="node" id="node7">
<title>7</title>
<ellipse cx="234" cy="-18" fill="#ffffff" rx="18" ry="18" stroke="#7b7b7b"/>
<text fill="#000000" font-family="Times New Roman,serif" font-size="14.00" text-anchor="middle" x="234" y="-14.3">2</text>
<animateMotion begin="0.00s" dur="5.00s" repeatCount="indefinite" path="m0,0 l0.00,73.00"/></g>
<!-- 3&#45;&gt;7 -->
<g class="edge" id="edge3" style="opacity:1">
<title>3-&gt;7</title>
<path d="M177.5,-54.47C186.89,-48.3 199.31,-40.14 210.02,-33.1" fill="none" stroke="#7b7b7b"/>
<polygon fill="#7b7b7b" points="218.51,-27.52 212.63,-36.77 214.34,-30.26 210.16,-33.01 210.16,-33.01 210.16,-33.01 214.34,-30.26 207.69,-29.25 218.51,-27.52 218.51,-27.52" stroke="#7b7b7b"/>
<animate attributeName="opacity" begin="0.00s" dur="5.00s" repeatCount="indefinite" from="1" to="0"/></g>
<!-- 5 -->
<g class="node" id="node5">
<title>5</title>
<ellipse cx="306" cy="-99" fill="#ffffff" rx="18" ry="18" stroke="#7b7b7b"/>
<text fill="#000000" font-family="Times New Roman,serif" font-size="14.00" text-anchor="middle" x="306" y="-95.3">1</text>
<animateMotion begin="0.00s" dur="5.00s" repeatCount="indefinite" path="m0,0 l-216.00,0.00"/></g>
<!-- 4&#45;&gt;5 -->
<g class="edge" id="edge6" style="opacity:1">
<title>4-&gt;5</title>
<path d="M251.24,-78.26C259.63,-81.5 270.07,-85.53 279.5,-89.17" fill="none" stroke="#7b7b7b"/>
<polygon fill="#7b7b7b" points="288.85,-92.77 277.9,-93.37 284.19,-90.97 279.52,-89.17 279.52,-89.17 279.52,-89.17 284.19,-90.97 281.14,-84.97 288.85,-92.77 288.85,-92.77" stroke="#7b7b7b"/>
<animate attributeName="opacity" begin="0.00s" dur="5.00s" repeatCount="indefinite" from="1" to="0"/></g>
<!-- 6 -->
<g class="node" id="node6">
<title>6</title>
<ellipse cx="306" cy="-45" fill="#ffffff" rx="18" ry="18" stroke="#7b7b7b"/>
<text fill="#000000" font-family="Times New Roman,serif" font-size="14.00" text-anchor="middle" x="306" y="-41.3">6</text>
<animateMotion begin="0.00s" dur="5.00s" repeatCount="indefinite" path="m0,0 l-216.00,0.00"/></g>
<!-- 4&#45;&gt;6 -->
<g class="edge" id="edge5" style="opacity:1">
<title>4-&gt;6</title>
<path d="M251.24,-65.74C259.63,-62.5 270.07,-58.47 279.5,-54.83" fill="none" stroke="#7b7b7b"/>
<polygon fill="#7b7b7b" points="288.85,-51.23 281.14,-59.03 284.19,-53.03 279.52,-54.83 279.52,-54.83 279.52,-54.83 284.19,-53.03 277.9,-50.63 288.85,-51.23 288.85,-51.23" stroke="#7b7b7b"/>
<animate attributeName="opacity" begin="0.00s" dur="5.00s" repeatCount="indefinite" from="1" to="0"/></g>
<!-- 7&#45;&gt;1 -->
<g class="edge" id="edge7" style="opacity:1">
<title>7-&gt;1</title>
<path d="M216.06,-19.82C179.15,-23.79 91.17,-33.24 46.31,-38.06" fill="none" stroke="#7b7b7b"/>
<polygon fill="#7b7b7b" points="36.15,-39.16 45.61,-33.61 41.12,-38.62 46.09,-38.09 46.09,-38.09 46.09,-38.09 41.12,-38.62 46.57,-42.56 36.15,-39.16 36.15,-39.16" stroke="#7b7b7b"/>
<animate attributeName="opacity" begin="0.00s" dur="5.00s" repeatCount="indefinite" from="1" to="0"/></g>
<!-- 8 -->
<g class="node" id="node8">
<title>8</title>
<ellipse cx="18" cy="-95" fill="#ffffff" rx="18" ry="18" stroke="#7b7b7b"/>
<text fill="#000000" font-family="Times New Roman,serif" font-size="14.00" text-anchor="middle" x="18" y="-91.3">7</text>
<animateMotion begin="0.00s" dur="5.00s" repeatCount="indefinite" path="m0,0 l216.00,96.00"/></g>
</g>
<g class="graph" id="graph1" transform="scale(1 1) rotate(0) translate(4 194)"><g class="edge" id="edge1" style="opacity:0">
<title>1-&gt;2</title>
<path d="M35.24,-46.33C43.42,-49.02 53.55,-52.35 62.8,-55.39" fill="none" stroke="#7b7b7b"/>
<polygon fill="#7b7b7b" points="72.37,-58.53 61.46,-59.69 67.62,-56.97 62.87,-55.41 62.87,-55.41 62.87,-55.41 67.62,-56.97 64.27,-51.14 72.37,-58.53 72.37,-58.53" stroke="#7b7b7b"/>
<animate attributeName="opacity" begin="0.00s" dur="5.00s" repeatCount="indefinite" from="0" to="1"/></g><g class="edge" id="edge2" style="opacity:0">
<title>2-&gt;3</title>
<path d="M108.3,-64C116.02,-64 125.29,-64 133.89,-64" fill="none" stroke="#7b7b7b"/>
<polygon fill="#7b7b7b" points="143.9,-64 133.9,-68.5 138.9,-64 133.9,-64 133.9,-64 133.9,-64 138.9,-64 133.9,-59.5 143.9,-64 143.9,-64" stroke="#7b7b7b"/>
<animate attributeName="opacity" begin="0.00s" dur="5.00s" repeatCount="indefinite" from="0" to="1"/></g><g class="edge" id="edge3" style="opacity:0">
<title>3-&gt;4</title>
<path d="M177.5,-54.47C186.89,-48.3 199.31,-40.14 210.02,-33.1" fill="none" stroke="#7b7b7b"/>
<polygon fill="#7b7b7b" points="218.51,-27.52 212.63,-36.77 214.34,-30.26 210.16,-33.01 210.16,-33.01 210.16,-33.01 214.34,-30.26 207.69,-29.25 218.51,-27.52 218.51,-27.52" stroke="#7b7b7b"/>
<animate attributeName="opacity" begin="0.00s" dur="5.00s" repeatCount="indefinite" from="0" to="1"/></g><g class="edge" id="edge8" style="opacity:0">
<title>3-&gt;5</title>
<path d="M179.95,-65.94C187.65,-66.82 196.97,-67.88 205.64,-68.87" fill="none" stroke="#ffa500"/>
<polygon fill="#ffa500" points="215.72,-70.03 205.28,-73.36 210.76,-69.46 205.79,-68.89 205.79,-68.89 205.79,-68.89 210.76,-69.46 206.3,-64.42 215.72,-70.03 215.72,-70.03" stroke="#ffa500"/>
<animate attributeName="opacity" begin="0.00s" dur="5.00s" repeatCount="indefinite" from="0" to="1"/></g><g class="edge" id="edge7" style="opacity:0">
<title>4-&gt;1</title>
<path d="M216.06,-19.82C179.15,-23.79 91.17,-33.24 46.31,-38.06" fill="none" stroke="#7b7b7b"/>
<polygon fill="#7b7b7b" points="36.15,-39.16 45.61,-33.61 41.12,-38.62 46.09,-38.09 46.09,-38.09 46.09,-38.09 41.12,-38.62 46.57,-42.56 36.15,-39.16 36.15,-39.16" stroke="#7b7b7b"/>
<animate attributeName="opacity" begin="0.00s" dur="5.00s" repeatCount="indefinite" from="0" to="1"/></g><g class="edge" id="edge6" style="opacity:0">
<title>6-&gt;7</title>
<path d="M35.24,-151.26C43.63,-154.5 54.07,-158.53 63.5,-162.17" fill="none" stroke="#7b7b7b"/>
<polygon fill="#7b7b7b" points="72.85,-165.77 61.9,-166.37 68.19,-163.97 63.52,-162.17 63.52,-162.17 63.52,-162.17 68.19,-163.97 65.14,-157.97 72.85,-165.77 72.85,-165.77" stroke="#7b7b7b"/>
<animate attributeName="opacity" begin="0.00s" dur="5.00s" repeatCount="indefinite" from="0" to="1"/></g><g class="edge" id="edge5" style="opacity:0">
<title>6-&gt;8</title>
<path d="M35.24,-138.74C43.63,-135.5 54.07,-131.47 63.5,-127.83" fill="none" stroke="#7b7b7b"/>
<polygon fill="#7b7b7b" points="72.85,-124.23 65.14,-132.03 68.19,-126.03 63.52,-127.83 63.52,-127.83 63.52,-127.83 68.19,-126.03 61.9,-123.63 72.85,-124.23 72.85,-124.23" stroke="#7b7b7b"/>
<animate attributeName="opacity" begin="0.00s" dur="5.00s" repeatCount="indefinite" from="0" to="1"/></g></g></svg>