<?xml version="1.0" ?><svg xmlns="http://www.w3.org/2000/svg" xmlns:xlink="http://www.w3.org/1999/xlink" width="216pt" height="162pt" viewBox="0.00 0.00 216.00 162.00"><style>.txt { alignment-baseline:middle; text-anchor:middle; font-family:Times,serif; }</style><a xlink:href="https://zjl9959.github.io/algviz/"><g class="frame" style="opacity:0" transform="translate(5,23.0)"><g id="graph0" class="graph" transform="scale(1 1) rotate(0) translate(4 112)"><polygon fill="transparent" stroke="transparent" points="-4,4 -4,-112 202,-112 202,4 -4,4"/><g id="node1" class="node"><ellipse fill="#ffffff" stroke="#7b7b7b" cx="27" cy="-90" rx="27" ry="18"/><text text-anchor="middle" x="27" y="-86.3" font-family="Times New Roman,serif" font-size="14.00" fill="#000000">A</text></g><g id="node2" class="node"><ellipse fill="#ffffff" stroke="#7b7b7b" cx="27" cy="-18" rx="27" ry="18"/><text text-anchor="middle" x="27" y="-14.3" font-family="Times New Roman,serif" font-size="14.00" fill="#000000">V</text></g><g id="edge1" class="edge"><path fill="none" stroke="#7b7b7b" d="M27,-71.7C27,-63.98 27,-54.71 27,-46.11"/><polygon fill="#7b7b7b" stroke="#7b7b7b" points="27,-36.1 31.5,-46.1 27,-41.1 27,-46.1 27,-46.1 27,-46.1 27,-41.1 22.5,-46.1 27,-36.1 27,-36.1"/></g><g id="node3" class="node"><ellipse fill="#ffffff" stroke="#7b7b7b" cx="99" cy="-90" rx="27" ry="18"/><text text-anchor="middle" x="99" y="-86.3" font-family="Times New Roman,serif" font-size="14.00" fill="#000000">L</text></g><g id="node4" class="node"><ellipse fill="#ffffff" stroke="#7b7b7b" cx="99" cy="-18" rx="27" ry="18"/><text text-anchor="middle" x="99" y="-14.3" font-family="Times New Roman,serif" font-size="14.00" fill="#000000">I<animate attributeName="font-size" from="14.00" to="0" begin="0S1.end+0.00s" dur="1.00s" fill="freeze"/><animate attributeName="font-size" from="0" to="14.00" begin="0E1.end" dur="0.01s" fill="freeze"/></text><text alignment-baseline="middle" text-anchor="middle" font-family="Times,serif" x="99.00" y="-18.00" font-size="0.00" fill="#000000">😀<animate attributeName="font-size" from="0" to="14.00" begin="0S1.end+1.20s" dur="0.80s" fill="freeze"/><animate attributeName="font-size" from="14.00" to="0" begin="0E1.end" dur="0.01s" fill="freeze"/></text></g><g id="edge2" class="edge"><path fill="none" stroke="#7b7b7b" d="M99,-71.7C99,-63.98 99,-54.71 99,-46.11"/><polygon fill="#7b7b7b" stroke="#7b7b7b" points="99,-36.1 103.5,-46.1 99,-41.1 99,-46.1 99,-46.1 99,-46.1 99,-41.1 94.5,-46.1 99,-36.1 99,-36.1"/></g><g id="node5" class="node"><ellipse fill="#ffffff" stroke="#7b7b7b" cx="171" cy="-90" rx="27" ry="18"/><text text-anchor="middle" x="171" y="-86.3" font-family="Times New Roman,serif" font-size="14.00" fill="#000000">G</text></g><g id="node6" class="node"><ellipse fill="#ffffff" stroke="#7b7b7b" cx="171" cy="-18" rx="27" ry="18"/><text text-anchor="middle" x="171" y="-14.3" font-family="Times New Roman,serif" font-size="14.00" fill="#000000">Z</text></g><g id="edge3" class="edge"><path fill="none" stroke="#7b7b7b" d="M171,-71.7C171,-63.98 171,-54.71 171,-46.11"/><polygon fill="#7b7b7b" stroke="#7b7b7b" points="171,-36.1 175.5,-46.1 171,-41.1 171,-46.1 171,-46.1 171,-46.1 171,-41.1 166.5,-46.1 171,-36.1 171,-36.1"/></g></g><g id="graph1" class="graph" transform="scale(1 1) rotate(0) translate(4 112)"/><animate attributeName="opacity" id="0S1" from="0" to="1" begin="0s;0E1.end+0s" dur="0.01s" fill="freeze"/><animate attributeName="opacity" id="0E1" begin="0S1.begin+2.5s" from="1" to="0" dur="0.01s" fill="freeze"/></g><g><animate attributeName="opacity" begin="1S2.begin" from="1" to="0" dur="0.01s" fill="freeze"/><animate attributeName="opacity" from="0" to="1" begin="1E2.end" dur="0.01s" fill="freeze"/><text x="10.00" y="19.40" font-family="Times,serif" font-weight="bold" font-size="12.00" fill="#808080">class:Map example:</text></g></a></svg>