<?xml version="1.0" ?><!DOCTYPE svg  PUBLIC '-//W3C//DTD SVG 1.1//EN'  'http://www.w3.org/Graphics/SVG/1.1/DTD/svg11.dtd'><!-- Generated by graphviz version 2.44.1 (20200629.0800)
 --><!-- Pages: 1 --><svg height="275pt" viewBox="0.00 0.00 233.00 275.00" width="233pt" xmlns="http://www.w3.org/2000/svg" xmlns:xlink="http://www.w3.org/1999/xlink">
<g class="graph" id="graph0" transform="scale(1 1) rotate(0) translate(4 271)">
<!-- 1 -->
<g class="node" id="node1">
<title>1</title>
<ellipse cx="98" cy="-249" fill="#ffffff" rx="18" ry="18" stroke="#7b7b7b"/>
<text fill="#000000" font-family="Times New Roman,serif" font-size="14.00" text-anchor="middle" x="98" y="-245.3">1</text>
</g>
<!-- 2 -->
<g class="node" id="node2">
<title>2</title>
<ellipse cx="72" cy="-176" fill="#ffffff" rx="18" ry="18" stroke="#7b7b7b"/>
<text fill="#000000" font-family="Times New Roman,serif" font-size="14.00" text-anchor="middle" x="72" y="-172.3">2</text>
</g>
<!-- 1&#45;&gt;2 -->
<g class="edge" id="edge2">
<title>1-&gt;2</title>
<path d="M92.1,-231.89C88.94,-223.27 84.98,-212.44 81.41,-202.69" fill="none" stroke="#7b7b7b"/>
<polygon fill="#7b7b7b" points="77.88,-193.05 85.54,-200.89 79.6,-197.74 81.32,-202.44 81.32,-202.44 81.32,-202.44 79.6,-197.74 77.09,-203.98 77.88,-193.05 77.88,-193.05" stroke="#7b7b7b"/>
</g>
<!-- 7 -->
<g class="node" id="node7">
<title>7</title>
<ellipse cx="126" cy="-176" fill="#ffffff" rx="18" ry="18" stroke="#7b7b7b"/>
<text fill="#000000" font-family="Times New Roman,serif" font-size="14.00" text-anchor="middle" x="126" y="-172.3">3</text>
</g>
<!-- 1&#45;&gt;7 -->
<g class="edge" id="edge1">
<title>1-&gt;7</title>
<path d="M104.35,-231.89C107.79,-223.17 112.11,-212.21 115.99,-202.38" fill="none" stroke="#7b7b7b"/>
<polygon fill="#7b7b7b" points="119.67,-193.05 120.19,-204 117.84,-197.7 116,-202.35 116,-202.35 116,-202.35 117.84,-197.7 111.82,-200.7 119.67,-193.05 119.67,-193.05" stroke="#7b7b7b"/>
</g>
<!-- 3 -->
<g class="node" id="node3">
<title>3</title>
<ellipse cx="18" cy="-103" fill="#ffffff" rx="18" ry="18" stroke="#7b7b7b"/>
<text fill="#000000" font-family="Times New Roman,serif" font-size="14.00" text-anchor="middle" x="18" y="-99.3">5</text>
</g>
<!-- 2&#45;&gt;3 -->
<g class="edge" id="edge4">
<title>2-&gt;3</title>
<path d="M61.59,-161.31C54.07,-151.42 43.74,-137.84 35.03,-126.39" fill="none" stroke="#7b7b7b"/>
<polygon fill="#7b7b7b" points="28.75,-118.13 38.38,-123.37 31.78,-122.11 34.8,-126.09 34.8,-126.09 34.8,-126.09 31.78,-122.11 31.22,-128.82 28.75,-118.13 28.75,-118.13" stroke="#7b7b7b"/>
</g>
<!-- 5 -->
<g class="node" id="node5">
<title>5</title>
<ellipse cx="72" cy="-103" fill="#ffffff" rx="18" ry="18" stroke="#7b7b7b"/>
<text fill="#000000" font-family="Times New Roman,serif" font-size="14.00" text-anchor="middle" x="72" y="-99.3">4</text>
</g>
<!-- 2&#45;&gt;5 -->
<g class="edge" id="edge3">
<title>2-&gt;5</title>
<path d="M72,-157.81C72,-149.79 72,-140.05 72,-131.07" fill="none" stroke="#7b7b7b"/>
<polygon fill="#7b7b7b" points="72,-121.03 76.5,-131.03 72,-126.03 72,-131.03 72,-131.03 72,-131.03 72,-126.03 67.5,-131.03 72,-121.03 72,-121.03" stroke="#7b7b7b"/>
</g>
<!-- 4 -->
<g class="node" id="node4">
<title>4</title>
<ellipse cx="18" cy="-18" fill="#ffffff" rx="18" ry="18" stroke="#7b7b7b"/>
<text fill="#000000" font-family="Times New Roman,serif" font-size="14.00" text-anchor="middle" x="18" y="-14.3">9</text>
</g>
<!-- 3&#45;&gt;4 -->
<g class="edge" id="edge5">
<title>3-&gt;4</title>
<path d="M18,-84.8C18,-73.67 18,-58.94 18,-46.24" fill="none" stroke="#7b7b7b"/>
<polygon fill="#7b7b7b" points="18,-36.18 22.5,-46.18 18,-41.18 18,-46.18 18,-46.18 18,-46.18 18,-41.18 13.5,-46.18 18,-36.18 18,-36.18" stroke="#7b7b7b"/>
<text fill="#c0c0c0" font-family="Times New Roman,serif" font-size="12.00" text-anchor="middle" x="22" y="-57.4">R</text>
</g>
<!-- 6 -->
<g class="node" id="node6">
<title>6</title>
<ellipse cx="72" cy="-18" fill="#ffffff" rx="18" ry="18" stroke="#7b7b7b"/>
<text fill="#000000" font-family="Times New Roman,serif" font-size="14.00" text-anchor="middle" x="72" y="-14.3">8</text>
</g>
<!-- 5&#45;&gt;6 -->
<g class="edge" id="edge6">
<title>5-&gt;6</title>
<path d="M72,-84.8C72,-73.67 72,-58.94 72,-46.24" fill="none" stroke="#7b7b7b"/>
<polygon fill="#7b7b7b" points="72,-36.18 76.5,-46.18 72,-41.18 72,-46.18 72,-46.18 72,-46.18 72,-41.18 67.5,-46.18 72,-36.18 72,-36.18" stroke="#7b7b7b"/>
<text fill="#c0c0c0" font-family="Times New Roman,serif" font-size="12.00" text-anchor="middle" x="76" y="-57.4">R</text>
</g>
<!-- 8 -->
<g class="node" id="node8">
<title>8</title>
<ellipse cx="126" cy="-103" fill="#ffffff" rx="18" ry="18" stroke="#7b7b7b"/>
<text fill="#000000" font-family="Times New Roman,serif" font-size="14.00" text-anchor="middle" x="126" y="-99.3">6</text>
</g>
<!-- 7&#45;&gt;8 -->
<g class="edge" id="edge8">
<title>7-&gt;8</title>
<path d="M126,-157.81C126,-149.79 126,-140.05 126,-131.07" fill="none" stroke="#7b7b7b"/>
<polygon fill="#7b7b7b" points="126,-121.03 130.5,-131.03 126,-126.03 126,-131.03 126,-131.03 126,-131.03 126,-126.03 121.5,-131.03 126,-121.03 126,-121.03" stroke="#7b7b7b"/>
</g>
<!-- 9 -->
<g class="node" id="node9">
<title>9</title>
<ellipse cx="180" cy="-103" fill="#ffffff" rx="18" ry="18" stroke="#7b7b7b"/>
<text fill="#000000" font-family="Times New Roman,serif" font-size="14.00" text-anchor="middle" x="180" y="-99.3">7</text>
</g>
<!-- 7&#45;&gt;9 -->
<g class="edge" id="edge7">
<title>7-&gt;9</title>
<path d="M136.41,-161.31C143.93,-151.42 154.26,-137.84 162.97,-126.39" fill="none" stroke="#7b7b7b"/>
<polygon fill="#7b7b7b" points="169.25,-118.13 166.78,-128.82 166.22,-122.11 163.2,-126.09 163.2,-126.09 163.2,-126.09 166.22,-122.11 159.62,-123.37 169.25,-118.13 169.25,-118.13" stroke="#7b7b7b"/>
</g>
<!-- 10 -->
<g class="node" id="node10">
<title>10</title>
<ellipse cx="153" cy="-18" fill="#ffffff" rx="18" ry="18" stroke="#7b7b7b"/>
<text fill="#000000" font-family="Times New Roman,serif" font-size="14.00" text-anchor="middle" x="153" y="-14.3">10</text>
<animateMotion begin="0.00s" dur="3.00s" repeatCount="indefinite" path="m0,0 l54.00,0.00"/></g>
<!-- 9&#45;&gt;10 -->
<g class="edge" id="edge10" style="opacity:1">
<title>9-&gt;10</title>
<path d="M174.67,-85.6C170.89,-74.01 165.76,-58.22 161.44,-44.93" fill="none" stroke="#ffa500"/>
<polygon fill="#ffa500" points="158.32,-35.36 165.7,-43.48 159.87,-40.12 161.42,-44.87 161.42,-44.87 161.42,-44.87 159.87,-40.12 157.14,-46.27 158.32,-35.36 158.32,-35.36" stroke="#ffa500"/>
<animate attributeName="opacity" begin="0.00s" dur="3.00s" repeatCount="indefinite" from="1" to="0"/></g>
<!-- 11 -->
<g class="node" id="node11">
<title>11</title>
<ellipse cx="207" cy="-18" fill="#ffffff" rx="18" ry="18" stroke="#7b7b7b"/>
<text fill="#000000" font-family="Times New Roman,serif" font-size="14.00" text-anchor="middle" x="207" y="-14.3">11</text>
<animateMotion begin="0.00s" dur="3.00s" repeatCount="indefinite" path="m0,0 l-54.00,0.00"/></g>
<!-- 9&#45;&gt;11 -->
<g class="edge" id="edge9" style="opacity:1">
<title>9-&gt;11</title>
<path d="M185.33,-85.6C189.11,-74.01 194.24,-58.22 198.56,-44.93" fill="none" stroke="#ffa500"/>
<polygon fill="#ffa500" points="201.68,-35.36 202.86,-46.27 200.13,-40.12 198.58,-44.87 198.58,-44.87 198.58,-44.87 200.13,-40.12 194.3,-43.48 201.68,-35.36 201.68,-35.36" stroke="#ffa500"/>
<animate attributeName="opacity" begin="0.00s" dur="3.00s" repeatCount="indefinite" from="1" to="0"/></g>
</g>
<g class="graph" id="graph1" transform="scale(1 1) rotate(0) translate(4 271)"><g class="edge" id="edge9" style="opacity:0">
<title>9-&gt;10</title>
<path d="M174.67,-85.6C170.89,-74.01 165.76,-58.22 161.44,-44.93" fill="none" stroke="#7b7b7b"/>
<polygon fill="#7b7b7b" points="158.32,-35.36 165.7,-43.48 159.87,-40.12 161.42,-44.87 161.42,-44.87 161.42,-44.87 159.87,-40.12 157.14,-46.27 158.32,-35.36 158.32,-35.36" stroke="#7b7b7b"/>
<animate attributeName="opacity" begin="0.00s" dur="3.00s" repeatCount="indefinite" from="0" to="1"/></g><g class="edge" id="edge10" style="opacity:0">
<title>9-&gt;11</title>
<path d="M185.33,-85.6C189.11,-74.01 194.24,-58.22 198.56,-44.93" fill="none" stroke="#7b7b7b"/>
<polygon fill="#7b7b7b" points="201.68,-35.36 202.86,-46.27 200.13,-40.12 198.58,-44.87 198.58,-44.87 198.58,-44.87 200.13,-40.12 194.3,-43.48 201.68,-35.36 201.68,-35.36" stroke="#7b7b7b"/>
<animate attributeName="opacity" begin="0.00s" dur="3.00s" repeatCount="indefinite" from="0" to="1"/></g></g></svg>